<?xml version="1.0" encoding="UTF-8"?>
<svg id="Layer_1" data-name="Layer 1" xmlns="http://www.w3.org/2000/svg" viewBox="0 0 1262.6 655.2">
  <defs>
    <style>
      .cls-1 {
        fill: #f3f0ef;
      }
    </style>
  </defs>
  <path class="cls-1" d="M.71,5.27C20.26,29.78,47.35,46.22,75.89,58.33c32.18,13.65,66.53,22.32,101.05,27.51,36.06,5.43,72.7,6.73,109.04,3.57s70.11-11.47,104.65-20.71c34.94-9.35,71.11-18.75,107.38-11.46,33.03,6.65,62.27,24.66,87.31,46.67,25.7,22.59,48.85,49.13,67.82,77.59s33.8,60.43,39.53,94.49,1.94,70.89-13.83,102.08c-14.17,28.03-40.39,54.7-73.35,57.22-31.41,2.4-56.88-23.49-54.35-54.88s32.91-54.09,63.99-53.17c34.19,1.01,61.18,25.37,83.06,49.24,24.17,26.36,46.98,54,70.25,81.15,23.54,27.46,47.29,54.77,72.14,81.06,11.96,12.66,24.18,25.08,36.74,37.16,12.53,12.04,25.16,24.28,39.28,34.46,26.42,19.06,58.1,35.02,90.11,41.74s66.32,2.16,97.06-10.42c30.24-12.37,57.01-31.61,81.28-53.25s45.95-43.18,61.66-70.12c7.36-12.62,12.86-26.2,15.81-40.52,.78-3.77-5.01-5.38-5.79-1.6-6.8,33.06-27.6,60.31-50.74,83.97-24.48,25.04-51.52,48.52-82.34,65.41-31.1,17.04-66.8,27.01-102.41,22.87-35.63-4.14-70.77-21.5-99.83-41.98-15.05-10.61-28.36-23.69-41.57-36.45-13.1-12.65-25.82-25.69-38.28-38.97-25.88-27.58-50.6-56.22-75.18-84.96-23.64-27.63-46.56-56.28-71.99-82.31-21.73-22.24-48.87-42.49-81.35-42.51-28.43-.01-55.58,17.03-64.92,44.41-8.33,24.41,.63,53.1,22.49,67.26,26.11,16.91,59.51,6.55,81.88-11.65,24.16-19.65,38.98-49.38,45.12-79.51,14.27-70.01-16.79-137.83-60.03-191.32-40.94-50.65-95.98-100.88-164.94-101.8-36.08-.48-70.93,11.17-105.46,20.12-37.63,9.75-75.66,15.85-114.6,16.37-38.35,.51-76.69-3.88-113.99-12.8-34.05-8.14-68.36-19.76-97.83-39.04C27.22,24.39,15.06,13.71,4.95,1.03,2.54-1.99-1.68,2.28,.71,5.27H.71Z"/>
</svg>