<?xml version="1.0" encoding="UTF-8"?>
<svg id="Layer_1" data-name="Layer 1" xmlns="http://www.w3.org/2000/svg" viewBox="0 0 1383.61 392.94">
  <defs>
    <style>
      .cls-1 {
        fill: none;
        stroke: #fff;
        stroke-dasharray: 0 0 20 20;
        stroke-miterlimit: 10;
        stroke-width: 4px;
      }
    </style>
  </defs>
  <path class="cls-1" d="M1.72,256.79c16.69,28.28,48.23,72.11,102.2,102.2,55.09,30.71,108.65,33.24,170.34,31.54,38.73-1.06,170.46-.02,353.3-50.47,54.6-15.07,109.14-33.32,169.08-68.14,62.22-36.15,89.65-66.55,107.25-95.89,11.45-19.09,30.85-52.49,25.24-94.63-1.6-12.02-5.55-41.62-30.28-61.83-29.48-24.08-66.77-17.06-76.97-15.14-11.97,2.25-42.76,8.05-61.83,36.59-18.44,27.6-11.94,59.99-8.83,75.71,14.43,73.05,89.52,162.32,195.57,198.1,139.78,47.16,266.4-21.19,306.61-42.9,61.51-33.2,103.41-74.4,128.7-103.47"/>
</svg>