<?xml version="1.0" encoding="UTF-8"?>
<svg id="Layer_1" data-name="Layer 1" xmlns="http://www.w3.org/2000/svg" viewBox="0 0 924.1 1280">
  <defs>
    <style>
      .cls-1 {
        fill: #f3f0ef;
      }
    </style>
  </defs>
  <path class="cls-1" d="M608.1,1000v240c0,10.67-4,20-12,28s-17.33,12-28,12h-240c-10.67,0-20-4-28-12s-12-17.33-12-28v-240c0-10.67,4-20,12-28s17.33-12,28-12h240c10.67,0,20,4,28,12s12,17.33,12,28ZM924.1,400c0,36-5.17,69.67-15.5,101s-22,56.83-35,76.5-31.33,39.5-55,59.5-42.83,34.5-57.5,43.5-35,20.83-61,35.5c-27.33,15.33-50.17,37-68.5,65s-27.5,50.33-27.5,67c0,11.33-4,22.17-12,32.5s-17.33,15.5-28,15.5h-240c-10,0-18.5-6.17-25.5-18.5s-10.5-24.83-10.5-37.5v-45c0-55.33,21.67-107.5,65-156.5s91-85.17,143-108.5c39.33-18,67.33-36.67,84-56s25-44.67,25-76c0-28-15.5-52.67-46.5-74s-66.83-32-107.5-32c-43.33,0-79.33,9.67-108,29-23.33,16.67-59,55-107,115-8.67,10.67-19,16-31,16-8,0-16.33-2.67-25-8L16.1,319c-8.67-6.67-13.83-15-15.5-25s.17-19.33,5.5-28C112.76,88.67,267.43,0,470.1,0c53.33,0,107,10.33,161,31s102.67,48.33,146,83,78.67,77.17,106,127.5c27.33,50.33,41,103.17,41,158.5Z"/>
</svg>